<svg xmlns="http://www.w3.org/2000/svg" width="1996.151" height="361.271" viewBox="0 0 1996.151 361.271">
    <defs>
        <filter id="48q6d7kisa" x="0" y="25.813" width="1996.151" height="335.458" filterUnits="userSpaceOnUse">
            <feOffset dx="5" dy="5"/>
            <feGaussianBlur stdDeviation="3" result="blur"/>
            <feFlood flood-opacity=".161"/>
            <feComposite operator="in" in2="blur"/>
            <feComposite in="SourceGraphic"/>
        </filter>
        <filter id="z35j10bl6b" x="39.192" y="0" width="1956.959" height="312.271" filterUnits="userSpaceOnUse">
            <feOffset dx="5" dy="3"/>
            <feGaussianBlur stdDeviation="3" result="blur-2"/>
            <feFlood flood-opacity=".161"/>
            <feComposite operator="in" in2="blur-2"/>
            <feComposite in="SourceGraphic"/>
        </filter>
    </defs>
    <g data-name="그룹 12">
        <g style="filter:url(#48q6d7kisa)" transform="translate(.001)">
            <path data-name="패스 4" d="M0 314.46c262.39-.209 421.26.553 573.688-20.091 273.779-37.079 426.223-105.591 561.881-156.627 42.785-16.1 83.932-30.463 126.693-41.545C1542.175 23.654 1978.069 0 1978.069 0" transform="rotate(180 991.075 172.885)" style="stroke:#4285f4;fill:none;stroke-width:3px"/>
        </g>
        <g style="filter:url(#z35j10bl6b)" transform="translate(.001)">
            <path data-name="패스 3" d="M0 291.273c257.192-.194 412.914.512 562.323-18.61 268.355-34.345 417.78-97.805 550.749-145.078 41.937-14.909 82.27-28.217 124.183-38.482C1511.623 21.91 1938.881 0 1938.881 0" transform="rotate(180 991.075 149.385)" style="stroke:#fbbc2b;opacity:.5;fill:none;stroke-width:3px"/>
        </g>
    </g>
</svg>
