<svg xmlns="http://www.w3.org/2000/svg" width="1149.646" height="403.266" viewBox="0 0 1149.646 403.266">
    <defs>
        <filter id="we33p3t5wa" x="0" y="25.813" width="1149.646" height="335.454" filterUnits="userSpaceOnUse">
            <feOffset dx="5" dy="5"/>
            <feGaussianBlur stdDeviation="3" result="blur"/>
            <feFlood flood-opacity=".161"/>
            <feComposite operator="in" in2="blur"/>
            <feComposite in="SourceGraphic"/>
        </filter>
        <filter id="qj3rqprb3b" x="22.424" y="0" width="1127.222" height="312.267" filterUnits="userSpaceOnUse">
            <feOffset dx="5" dy="3"/>
            <feGaussianBlur stdDeviation="3" result="blur-2"/>
            <feFlood flood-opacity=".161"/>
            <feComposite operator="in" in2="blur-2"/>
            <feComposite in="SourceGraphic"/>
        </filter>
        <filter id="grbgbmpbnc" x="0" y="67.813" width="1149.646" height="335.454" filterUnits="userSpaceOnUse">
            <feOffset dx="5" dy="5"/>
            <feGaussianBlur stdDeviation="3" result="blur-3"/>
            <feFlood flood-opacity=".161"/>
            <feComposite operator="in" in2="blur-3"/>
            <feComposite in="SourceGraphic"/>
        </filter>
    </defs>
    <g data-name="그룹 12">
        <g style="filter:url(#we33p3t5wa)" transform="translate(.002)">
            <path data-name="패스 4" d="M0 314.46c150.093-.209 240.971.553 328.163-20.091 156.608-37.079 243.81-105.591 321.409-156.627 24.474-16.1 48.011-30.463 72.471-41.545C882.161 23.654 1131.5 0 1131.5 0" transform="rotate(180 567.82 172.885)" style="stroke:#4285f4;fill:none;stroke-width:3px"/>
        </g>
        <g style="filter:url(#qj3rqprb3b)" transform="translate(.002)">
            <path data-name="패스 3" d="M0 291.273c147.12-.194 236.2.512 321.662-18.61 153.505-34.345 238.98-97.805 315.042-145.078 23.989-14.909 47.06-28.217 71.036-38.482C864.684 21.91 1109.086 0 1109.086 0" transform="rotate(180 567.82 149.385)" style="stroke:#fbbc2b;opacity:.5;fill:none;stroke-width:3px"/>
        </g>
        <g style="filter:url(#grbgbmpbnc)" transform="translate(.002)">
            <path data-name="패스 9" d="M0 314.46c150.093-.209 240.971.553 328.163-20.091 156.608-37.079 243.81-105.591 321.409-156.627 24.474-16.1 48.011-30.463 72.471-41.545C882.161 23.654 1131.5 0 1131.5 0" transform="rotate(180 567.82 193.885)" style="stroke:#b5b5b5;stroke-dasharray:5;fill:none;stroke-width:3px"/>
        </g>
    </g>
</svg>
